<?xml version="1.0" encoding="iso-8859-1"?>
<!-- Generator: Adobe Illustrator 18.0.0, SVG Export Plug-In . SVG Version: 6.00 Build 0)  -->
<!DOCTYPE svg PUBLIC "-//W3C//DTD SVG 1.1//EN" "http://www.w3.org/Graphics/SVG/1.1/DTD/svg11.dtd">
<svg version="1.1" id="Capa_1" xmlns="http://www.w3.org/2000/svg" xmlns:xlink="http://www.w3.org/1999/xlink" x="0px" y="0px"
	 viewBox="0 0 173.309 173.309" style="enable-background:new 0 0 173.309 173.309;" xml:space="preserve">
<path d="M173.295,59.534c-0.001-4.142-3.358-7.499-7.5-7.499h-57.784l8.781-34.368c0.573-2.244,0.077-4.627-1.343-6.457
	c-1.421-1.83-3.607-2.9-5.924-2.9H74.73c-3.427,0-6.417,2.322-7.266,5.642l-9.735,38.06L7.497,52.036
	C3.355,52.038,0,55.395,0,59.536v83.849c0,4.142,3.357,7.5,7.5,7.5h40.154l26.668,13.322c1.041,0.52,2.188,0.791,3.351,0.791h78.951
	c4.143,0,7.5-3.358,7.5-7.5V140.51h1.684c1.989,0,3.898-0.791,5.304-2.197c1.406-1.407,2.196-3.315,2.196-5.304L173.295,59.534z
	 M123.727,125.51c-4.143,0-7.5,3.358-7.5,7.5c0,4.142,3.357,7.5,7.5,7.5h25.398v9.487H79.443l-26.668-13.322
	c-1.041-0.52-2.188-0.79-3.352-0.79H15V67.032l48.556-0.022c3.426-0.002,6.414-2.323,7.263-5.642l9.735-38.058h19.314l-8.781,34.368
	c-0.573,2.244-0.077,4.627,1.343,6.456c1.421,1.83,3.607,2.9,5.924,2.9h59.942l0.002,9.473H123.74c-4.142,0-7.5,3.358-7.5,7.5
	s3.358,7.5,7.5,7.5h34.561l0.002,9.503H123.74c-4.142,0-7.5,3.358-7.5,7.5c0,4.142,3.358,7.5,7.5,7.5h34.565l0.002,9.499H123.727z"
	/>
<g>
</g>
<g>
</g>
<g>
</g>
<g>
</g>
<g>
</g>
<g>
</g>
<g>
</g>
<g>
</g>
<g>
</g>
<g>
</g>
<g>
</g>
<g>
</g>
<g>
</g>
<g>
</g>
<g>
</g>
</svg>
